<svg width="120" height="40" viewBox="0 0 120 40" fill="none" xmlns="http://www.w3.org/2000/svg">
<path id="Vector" fill-rule="evenodd" clip-rule="evenodd" d="M16.5643 0.0829108C12.9396 0.528405 8.95039 2.39138 5.54843 5.26685C4.85994 5.83384 3.42221 7.23107 3.42221 7.31207C3.42221 7.35257 4.1107 8.08156 4.96119 8.93205L6.50017 10.4913L5.85218 11.2203C3.46271 13.9135 1.84273 16.6472 0.870738 19.5429C0.263246 21.3654 0 22.8639 0 24.5446C0 26.0633 0.202497 27.2986 0.668241 28.4933L0.850489 28.9793L5.36618 33.495C9.13264 37.2615 9.98313 38.0714 10.4489 38.3752C11.4209 39.0232 12.5548 39.4687 13.8103 39.7319C14.6406 39.9142 16.5643 39.9749 17.4755 39.8534C21.08 39.4079 24.8059 37.7069 28.0662 34.9935C28.9166 34.2847 30.3544 32.928 30.3544 32.847C30.3544 32.8065 29.6456 32.0775 28.7951 31.2068L27.2359 29.6273L27.7219 29.1211C28.9166 27.8656 30.3746 25.8608 31.2251 24.2814C32.4401 22.0741 33.2298 19.6847 33.4931 17.4977C33.5943 16.546 33.5336 14.521 33.3716 13.7515C33.0881 12.4555 32.6426 11.4025 31.9744 10.39C31.6301 9.86354 30.9416 9.1548 27.1347 5.3276L22.6797 0.872653L22.214 0.690403C21.5862 0.427156 20.2902 0.123411 19.5005 0.0424119C18.7108 -0.0385871 17.4755 -0.018338 16.5643 0.0829108ZM20.3915 1.27765C20.7155 1.35865 21.242 1.48015 21.5255 1.58139C22.052 1.76364 22.0722 1.76364 22.9025 2.59388C23.6315 3.32287 23.7327 3.42412 23.5505 3.40387C22.5785 3.22162 21.0192 3.18112 19.8043 3.34312C15.9163 3.82912 11.9069 5.79334 8.2214 9.0333C7.8569 9.35729 7.53291 9.64079 7.47216 9.68129C7.41141 9.72179 7.08741 9.45854 6.13567 8.50681L4.88019 7.25132L5.69018 6.54258C9.07189 3.58612 12.7978 1.72314 16.4428 1.19665C17.4148 1.0549 19.5815 1.11565 20.3915 1.27765ZM25.6969 7.71706C27.4789 7.98031 29.0381 8.7498 30.1924 9.90404C31.3264 11.038 32.0554 12.496 32.3996 14.3185C32.5413 15.1285 32.5413 16.951 32.3996 17.9027C31.9339 20.8389 30.5771 23.8561 28.4711 26.6101C27.9852 27.2581 26.8309 28.6148 26.6487 28.7566C26.5474 28.8376 26.4259 28.7363 25.3729 27.6833C24.7249 27.0353 24.1984 26.4886 24.1984 26.4683C24.1984 26.4481 24.3807 26.2253 24.6034 25.9823C28.2686 21.9324 29.9899 16.87 28.7749 13.7312C28.2889 12.5163 27.2764 11.605 25.9602 11.2C25.2919 10.9975 24.1174 10.8963 23.2467 10.9975C21.9102 11.119 20.27 11.6455 18.6905 12.415C17.111 13.1845 15.6733 14.1565 14.2761 15.412L13.6483 15.9587L12.4536 14.764L11.2589 13.5692L11.7651 13.1035C14.8633 10.2078 18.974 8.14231 22.4975 7.67657C23.2062 7.61582 25.0287 7.61582 25.6969 7.71706ZM8.95039 14.7032C8.5049 15.2095 7.9379 15.9182 7.6544 16.2827C4.29295 20.7579 2.75397 25.6178 3.38171 29.8095L3.42221 30.0728L2.59197 29.2628C1.80223 28.4933 1.76173 28.4326 1.59973 27.9466C0.02025 23.4106 2.00472 17.1534 6.68242 11.9088L7.22916 11.3013L8.48464 12.5568L9.74013 13.8122L8.95039 14.7032ZM24.7654 12.1113L24.9274 12.1518L24.8869 13.0022C24.8464 14.0147 24.7047 14.845 24.5022 15.5537C23.8542 17.6799 22.6595 19.8062 20.918 21.8109L20.2497 22.5804L18.974 21.3046L17.6983 20.0289L18.2855 19.3809C19.541 18.0039 20.6952 16.4042 21.404 15.0475C21.7887 14.3185 22.295 13.0833 22.4367 12.5163C22.5177 12.172 22.5177 12.172 22.8215 12.1315C22.9835 12.1113 23.1657 12.091 23.2265 12.0708C23.3885 12.0708 24.6237 12.0708 24.7654 12.1113ZM21.1407 13.0022C20.8572 13.792 20.2295 15.007 19.622 15.9182C18.9538 16.9307 18.488 17.5382 17.5565 18.5912L16.9085 19.3404L15.6328 18.0647L14.3571 16.789L14.7823 16.4042C16.0985 15.2297 17.6375 14.1767 19.055 13.4477C19.8245 13.063 21.08 12.5568 21.2622 12.5365C21.2825 12.5365 21.242 12.739 21.1407 13.0022ZM40.54 13.7717C40.4792 13.8325 40.459 15.5132 40.459 21.6691C40.459 29.1615 40.459 29.4855 40.5805 29.5868C40.6817 29.688 41.0057 29.688 43.7395 29.688C45.3999 29.688 47.2022 29.6475 47.7287 29.6273C49.8549 29.4855 51.4951 28.7971 52.7506 27.5416C53.7428 26.5493 54.3706 25.1723 54.6946 23.3499C54.8363 22.4589 54.8363 20.5959 54.6946 19.7252C54.1681 16.789 52.4873 14.8855 49.7941 14.116C48.4779 13.7515 48.3766 13.7312 44.3672 13.711C41.3905 13.711 40.6007 13.711 40.54 13.7717ZM114.269 14.035C114.209 14.0957 114.188 14.602 114.188 15.898V17.6799H113.419C112.913 17.6799 112.629 17.7002 112.568 17.7609C112.467 17.8622 112.467 19.9682 112.568 20.0897C112.629 20.1504 112.913 20.1707 113.419 20.1707H114.188L114.209 23.7751C114.229 27.2986 114.229 27.3998 114.371 27.8048C114.755 28.9186 115.545 29.526 116.821 29.688C117.692 29.7893 118.927 29.7488 119.777 29.5868L119.96 29.5463L119.939 28.0681L119.919 26.5898L119.109 26.5493C118.238 26.5088 118.097 26.4683 117.995 26.2861C117.955 26.2051 117.935 24.9901 117.935 23.1879V20.2112L118.967 20.1909L120 20.1707V18.9354V17.7002L118.967 17.6799L117.935 17.6597V15.9182C117.935 14.845 117.914 14.1362 117.874 14.0552C117.813 13.9337 117.712 13.9337 116.092 13.9337C114.816 13.9742 114.33 13.9945 114.269 14.035ZM47.9919 17.4572C49.2271 17.7812 50.0371 18.6519 50.3611 19.9277C50.6041 20.8997 50.6041 22.5196 50.3409 23.5321C50.0776 24.5244 49.4701 25.3141 48.6601 25.6988C47.9514 26.0431 47.5262 26.1038 46.0682 26.1443L44.7519 26.1848V21.7299V17.2749L46.1694 17.3154C47.2022 17.3357 47.7084 17.3762 47.9919 17.4572ZM60.3645 17.5382C58.3395 17.9027 56.7803 19.2392 56.0918 21.1831C55.1806 23.7346 55.6261 26.6506 57.165 28.2908C57.975 29.1413 58.7445 29.5868 59.919 29.8905C62.1667 30.4575 64.5765 29.8703 66.1762 28.3718C66.5609 28.0276 67.5532 26.7721 67.5532 26.6506C67.5532 26.5088 67.2697 26.3266 66.1154 25.7393C65.4067 25.3748 64.8194 25.0711 64.7992 25.0711C64.7789 25.0711 64.6574 25.2533 64.5359 25.4761C64.2525 26.0228 63.6652 26.6303 63.24 26.8531C61.9642 27.4808 60.4657 27.1163 59.8178 26.0228C59.6355 25.6988 59.4533 25.1318 59.4533 24.8281V24.6054H63.5032C66.5609 24.6054 67.5532 24.5851 67.6139 24.5244C67.7152 24.4231 67.7152 23.6131 67.5937 22.8031C67.2697 20.6364 66.3584 19.0772 64.9004 18.2064C64.4145 17.9229 63.483 17.5989 62.8755 17.4977C62.268 17.3964 60.972 17.4167 60.3645 17.5382ZM73.6686 17.4572C73.1016 17.5382 72.6358 17.6394 72.2713 17.7609C70.2261 18.4089 68.8694 20.0897 68.4442 22.4791C68.2822 23.3904 68.3429 24.8483 68.5657 25.7191C68.8694 26.8936 69.3149 27.6631 70.1249 28.4326C70.8336 29.1008 71.6639 29.5665 72.7776 29.8703C73.1016 29.9715 73.4256 29.9918 74.2558 29.9918C75.2076 29.9918 75.3493 29.9715 75.8758 29.8095C76.9288 29.4855 77.7388 28.9996 78.4678 28.2301C78.9538 27.7238 79.5005 26.9746 79.5005 26.8126C79.5005 26.7518 79.3993 26.6506 79.298 26.5696C78.8728 26.3063 76.9085 25.3343 76.8073 25.3343C76.7466 25.3343 76.6453 25.4761 76.5441 25.6786C76.301 26.2051 75.9771 26.5493 75.4708 26.7923C75.0861 26.9746 74.9646 27.0151 74.5393 26.9948C73.9723 26.9948 73.6078 26.8531 73.1421 26.4481C71.9271 25.3748 71.8461 22.3981 73.0003 21.0414C73.7293 20.1909 75.0861 20.1909 75.9568 21.0212C76.0986 21.1629 76.3011 21.4261 76.4023 21.6084C76.5036 21.7906 76.6251 21.9526 76.6858 21.9526C76.8275 21.9931 79.3183 20.5554 79.3588 20.4137C79.379 20.2922 79.1158 19.8872 78.731 19.4012C78.1033 18.6317 76.868 17.8824 75.7948 17.6394C75.2481 17.4977 74.0736 17.4167 73.6686 17.4572ZM106.149 17.5989C105.481 17.7204 104.873 17.9634 104.387 18.3279L104.003 18.6114L103.982 18.2064L103.962 17.8014L102.403 17.7812C101.026 17.7609 100.823 17.7812 100.722 17.8824C100.601 17.9837 100.601 18.2874 100.601 25.7798C100.601 31.7535 100.621 33.576 100.682 33.6367C100.803 33.7582 104.205 33.7582 104.306 33.6367C104.367 33.576 104.387 32.9685 104.387 31.3283V29.1008L105.015 29.4248C105.866 29.85 106.392 29.9513 107.384 29.9108C108.539 29.85 109.227 29.6273 109.976 29.0603C111.029 28.2706 111.718 27.0556 112.103 25.3748C112.305 24.4839 112.305 22.9246 112.103 21.9729C111.839 20.7174 111.414 19.8669 110.645 19.0569C109.511 17.8014 107.85 17.2952 106.149 17.5989ZM14.8228 18.7937C15.9163 19.8872 15.977 19.9682 15.8961 20.0897C15.8353 20.1504 15.5721 20.4542 15.2886 20.7782C14.1546 22.0741 13.1016 23.6536 12.3928 25.1116C11.8866 26.1443 11.5829 26.9948 11.2791 28.1491C10.8944 29.6678 10.8944 31.3485 11.3196 32.523C12.1094 34.7505 14.1951 35.8035 17.111 35.4592C19.9258 35.115 23.1657 33.495 25.9399 31.0448L26.5272 30.5183L27.7219 31.713L28.9166 32.9077L28.4104 33.3735C25.8184 35.7832 22.3557 37.7474 19.3588 38.4764C18.1438 38.7802 17.2933 38.8814 16.139 38.8814C14.6001 38.8814 13.4661 38.6789 12.2713 38.1524C10.7324 37.4842 9.31488 36.168 8.58589 34.71C7.67465 32.9078 7.41141 30.6803 7.8164 28.2706C8.3834 24.9091 10.2666 21.3046 13.0408 18.2064C13.3243 17.8824 13.5876 17.6192 13.6078 17.6192C13.6281 17.6192 14.1748 18.1457 14.8228 18.7937ZM86.8714 17.7002C86.0817 17.8217 85.0894 18.1862 84.4415 18.6114L84.239 18.7532V18.3279C84.239 18.0849 84.1985 17.8824 84.158 17.8217C84.0972 17.7609 83.6315 17.7407 82.4367 17.7407C80.9382 17.7407 80.7762 17.7407 80.6952 17.8622C80.594 17.9634 80.594 18.4697 80.594 23.7346C80.594 29.2223 80.594 29.4855 80.7155 29.5868C80.8167 29.688 81.0395 29.688 82.4975 29.688C83.7935 29.688 84.1782 29.6678 84.239 29.607C84.2795 29.5463 84.32 28.3516 84.32 25.9013C84.3402 22.4994 84.3402 22.2564 84.4617 22.0336C84.7047 21.5476 85.13 21.3451 86.3652 21.1427C86.8309 21.0617 87.2967 20.9806 87.3979 20.9604L87.5802 20.9199V19.3404C87.5802 17.7609 87.5599 17.5787 87.3574 17.6192C87.2764 17.6394 87.0739 17.6597 86.8714 17.7002ZM88.5319 17.8419C88.4914 17.9027 88.4712 18.0039 88.4914 18.1052C88.5117 18.1862 89.0584 19.9682 89.7064 22.0336C92.2984 30.3765 92.1566 29.8905 91.9743 30.2145C91.8124 30.5385 91.5289 30.5993 90.5164 30.5993C89.8886 30.5993 89.5646 30.6195 89.5241 30.6803C89.4634 30.741 89.4431 31.146 89.4431 32.1383C89.4431 33.1305 89.4634 33.5355 89.5241 33.5962C89.6254 33.6975 92.1971 33.6975 92.8653 33.6165C93.9791 33.4545 94.8903 32.6648 95.4168 31.4093C95.5383 31.146 96.5711 28.0073 97.7253 24.4434C99.487 19.0569 99.8313 17.9432 99.7503 17.8622C99.6895 17.7812 99.3858 17.7609 97.786 17.7609H95.9028L95.8421 18.0444C95.8016 18.2064 95.4168 19.8872 94.9713 21.8109C94.5258 23.7346 94.1613 25.3343 94.1208 25.3546C94.1006 25.3748 93.6753 23.6739 93.2096 21.5881L92.3389 17.7609H90.4556C88.8964 17.7609 88.5926 17.7609 88.5319 17.8419ZM62.673 20.3732C63.2805 20.6567 63.6855 21.2034 63.807 21.8716L63.8475 22.1146H61.6807H59.514L59.5545 21.9121C59.6355 21.5476 59.9798 20.9604 60.2633 20.7174C60.7492 20.2922 61.1745 20.1504 61.8427 20.1909C62.1667 20.2112 62.4097 20.2719 62.673 20.3732ZM107.364 20.4744C107.931 20.7782 108.356 21.4059 108.559 22.2564C108.701 22.8841 108.701 24.3826 108.539 25.0103C108.397 25.5571 108.113 26.1241 107.81 26.5088C107.324 27.0961 106.372 27.2581 105.602 26.8733C104.711 26.4278 104.286 25.4356 104.286 23.7751C104.286 22.2361 104.691 21.1426 105.44 20.5959C106.028 20.1909 106.736 20.1504 107.364 20.4744ZM18.7918 23.7549C17.1313 25.3141 15.0051 26.7113 13.2433 27.4201C12.8788 27.5618 12.5548 27.6833 12.5346 27.6833C12.5143 27.6833 12.5953 27.4606 12.6966 27.1771C13.4661 25.0508 14.8026 22.8841 16.4023 21.1629L16.787 20.7579L18.0628 22.0134L19.3385 23.2689L18.7918 23.7549ZM21.3432 25.3343L22.5785 26.5696L22.1937 26.9341C20.1687 28.8376 17.0503 30.5588 14.8431 31.0245C14.2963 31.146 13.0813 31.2675 12.4941 31.2675H12.1093V30.336C12.1093 29.8298 12.1296 29.283 12.1498 29.1615L12.1903 28.9186L12.9801 28.6553C14.9848 28.0073 17.5363 26.4076 19.4195 24.6256C19.7233 24.3421 20.0068 24.0991 20.0472 24.0991C20.0877 24.0991 20.675 24.6459 21.3432 25.3343Z" fill="#1D1D1B"/>
</svg>
